<?xml version="1.0" encoding="utf-8"?>
<!-- Generator: Adobe Illustrator 19.0.0, SVG Export Plug-In . SVG Version: 6.00 Build 0)  -->
<svg version="1.1" id="Layer_1" xmlns="http://www.w3.org/2000/svg" xmlns:xlink="http://www.w3.org/1999/xlink" x="0px" y="0px"
	 viewBox="0 0 3840 208.3" style="enable-background:new 0 0 3840 208.3;" xml:space="preserve">
<style type="text/css">
	.st0{fill:#D9F4FF;}
</style>
<g>
	<polyline class="st0" points="3840,81.3 3840,208.3 3840,195.3 1920,195.3 1920,118.3 1920,118.7 2154.4,21.5 2374.5,139.4 
		2553.6,93.7 2592.1,110.3 2901.8,0 3152.1,110.3 3246.1,70.1 3460.6,143.5 3682.6,30.9 	"/>
	<polyline class="st0" points="0,81.3 0,208.3 0,195.3 1920,195.3 1920,118.3 1920,118.7 1685.6,21.5 1465.5,139.4 1286.4,93.7 
		1247.9,110.3 938.2,0 687.9,110.3 593.9,70.1 379.4,143.5 157.4,30.9 	"/>
</g>
</svg>
