<?xml version="1.0" encoding="utf-8"?>
<!-- Generator: Adobe Illustrator 19.0.0, SVG Export Plug-In . SVG Version: 6.00 Build 0)  -->
<svg version="1.1" id="Layer_1" xmlns="http://www.w3.org/2000/svg" xmlns:xlink="http://www.w3.org/1999/xlink" x="0px" y="0px"
	 viewBox="0 0 100 100" style="enable-background:new 0 0 100 100;" xml:space="preserve">
<style type="text/css">
	.st0{fill:#FF0000;}
</style>
<g id="XMLID_1_">
	<path id="XMLID_10_" class="st0" d="M50,26.8c-12.8,0-23.2,10.4-23.2,23.2c0,12.8,10.4,23.2,23.2,23.2c12.8,0,23.2-10.4,23.2-23.2
		C73.2,37.2,62.8,26.8,50,26.8z M50,65.5c-8.5,0-15.5-6.9-15.5-15.5c0-8.5,6.9-15.5,15.5-15.5c8.5,0,15.5,6.9,15.5,15.5
		C65.5,58.5,58.5,65.5,50,65.5z"/>
	<path id="XMLID_7_" class="st0" d="M92.8,58.1l-7.3-5.7c0.1-0.8,0.1-1.6,0.1-2.4s0-1.7-0.1-2.4l7.3-5.7c2.3-1.9,2.9-5.1,1.5-7.7
		l-8.5-14.6c-1.4-2.5-4.5-3.6-7.2-2.7h-0.1l-8.6,3.4c-1.3-0.9-2.7-1.7-4.2-2.4l-1.3-9c-0.4-3-2.9-5.2-5.9-5.1H41.5
		c-3,0-5.5,2.2-5.9,5.1L34.3,18c-1.4,0.7-2.8,1.5-4.2,2.4L21.5,17c-2.7-1.1-5.9,0-7.3,2.6L5.8,34.2c-1.5,2.6-0.9,5.9,1.5,7.7
		l7.3,5.7c-0.1,0.9-0.1,1.7-0.1,2.4s0,1.6,0.1,2.4l-7.3,5.7c-2.3,1.8-2.9,5-1.5,7.6v0.1l8.4,14.6c1.4,2.6,4.5,3.7,7.3,2.7h0.1
		l8.6-3.4c1.3,0.9,2.7,1.7,4.2,2.4l1.3,9.1c0.4,3,3,5.1,5.9,5.1h16.9c3,0,5.5-2.2,5.9-5.1l1.3-9.1c1.4-0.7,2.8-1.5,4.2-2.4l8.7,3.5
		c2.8,1.1,5.9,0,7.3-2.6l8.4-14.7C95.7,63.1,95,59.9,92.8,58.1z M79.8,75.3l-9.1-3.7c-1.2-0.5-2.7-0.3-3.7,0.5
		c-1.9,1.5-4.1,2.7-6.3,3.7c-1.3,0.5-2.2,1.7-2.3,3l-1.4,9.7H43l-1.4-9.7c-0.2-1.3-1.1-2.5-2.3-3c-2.2-0.9-4.4-2.2-6.3-3.6
		c-1.1-0.8-2.5-1-3.8-0.5l-9.1,3.7l-7-12.1l7.7-6c1.1-0.8,1.6-2.2,1.4-3.5c-0.2-1.2-0.2-2.4-0.2-3.7c0-1.2,0.1-2.5,0.3-3.7
		c0.2-1.3-0.4-2.7-1.4-3.5l-7.7-6l6.9-12l9.1,3.7c1.3,0.5,2.7,0.3,3.7-0.5c1.9-1.5,4.1-2.7,6.3-3.7c1.3-0.5,2.2-1.7,2.3-3l1.4-9.7
		h13.9l1.4,9.7c0.2,1.3,1.1,2.5,2.3,3c2.2,0.9,4.4,2.2,6.3,3.6c1.1,0.8,2.5,1,3.8,0.5l9.1-3.7l7,12.1l-7.7,6
		c-1.1,0.8-1.6,2.2-1.4,3.5c0.2,1.2,0.2,2.4,0.3,3.7c0,1.2-0.1,2.5-0.3,3.7c-0.2,1.3,0.4,2.7,1.4,3.5l7.7,6L79.8,75.3z"/>
</g>
</svg>
