<?xml version="1.0" encoding="utf-8"?>
<!-- Generator: Adobe Illustrator 19.0.0, SVG Export Plug-In . SVG Version: 6.00 Build 0)  -->
<svg version="1.1" id="Layer_1" xmlns="http://www.w3.org/2000/svg" xmlns:xlink="http://www.w3.org/1999/xlink" x="0px" y="0px"
	 viewBox="0 0 100 100" style="enable-background:new 0 0 100 100;" xml:space="preserve">
<style type="text/css">
	.st0{fill:#FF0000;}
</style>
<g id="XMLID_1_">
	<g id="XMLID_2_">
		<path id="XMLID_6_" class="st0" d="M52.4,31.4c-2.2-8.5,0-17.7,5.9-24C65,0.3,75.1-1.9,83.9,1.7c1.2,0.5,2,1.5,2.3,2.8
			S86,7.1,85.2,8L75,18.6c-0.1,0.1-0.1,0.2-0.1,0.2c0,0.1,0,0.2,0.1,0.2l5.7,5.9c0.1,0.1,0.3,0.1,0.5,0l10.1-10.6
			c0.9-0.9,2.1-1.3,3.3-1c1.2,0.3,2.2,1.2,2.7,2.4c3.4,9.2,1.4,19.6-5.3,26.6c-6.1,6.4-14.9,8.7-23.1,6.4L50,68.6
			c2.2,8.5,0,17.7-5.9,24c-4.5,4.8-10.7,7.4-16.9,7.4c-2.9,0-5.8-0.6-8.7-1.7c-1.2-0.5-2-1.5-2.3-2.8c-0.3-1.3,0.1-2.6,1-3.5
			l10.1-10.6c0.1-0.1,0.1-0.2,0.1-0.2c0-0.1,0-0.2-0.1-0.2l-5.7-5.9c-0.1-0.1-0.3-0.1-0.5,0L11.2,85.6c-0.9,0.9-2.1,1.3-3.3,1
			s-2.2-1.2-2.7-2.4C1.7,75,3.8,64.6,10.4,57.6c6.1-6.4,14.9-8.7,23.1-6.4 M21.5,67.1c2.1,0,4,0.8,5.4,2.4l5.7,5.9
			c1.5,1.5,2.2,3.5,2.2,5.7c0,2.1-0.8,4.2-2.2,5.7l-5.3,5.5c4.2,0,8.4-1.8,11.5-5.1c4.5-4.8,5.9-12,3.5-18.3c-0.5-1.4-0.2-3,0.8-4.1
			l22.1-23.2c1-1.1,2.6-1.4,3.9-0.9c6.1,2.5,12.9,1,17.5-3.8c3.1-3.2,4.7-7.5,4.8-11.9l-5.3,5.5c-1.5,1.5-3.4,2.4-5.4,2.4
			s-4-0.8-5.4-2.4l-5.7-5.9c-1.5-1.5-2.2-3.5-2.2-5.7c0-2.1,0.8-4.2,2.2-5.7l5.3-5.5c-4.2,0-8.4,1.8-11.5,5.1
			c-4.5,4.8-5.9,12-3.5,18.3c0.5,1.4,0.2,3-0.8,4.1L37.1,58.4c-1,1.1-2.6,1.4-3.9,0.9c-6.1-2.5-12.9-1-17.5,3.8
			c-3.1,3.2-4.7,7.5-4.8,11.9l5.3-5.5C17.6,68,19.5,67.1,21.5,67.1z"/>
	</g>
</g>
</svg>
