<?xml version="1.0" encoding="utf-8"?>
<!-- Generator: Adobe Illustrator 19.0.0, SVG Export Plug-In . SVG Version: 6.00 Build 0)  -->
<svg version="1.1" id="Layer_1" xmlns="http://www.w3.org/2000/svg" xmlns:xlink="http://www.w3.org/1999/xlink" x="0px" y="0px"
	 viewBox="0 0 100 100" style="enable-background:new 0 0 100 100;" xml:space="preserve">
<style type="text/css">
	.st0{fill:#FF0000;}
</style>
<g id="XMLID_2_">
	<path id="XMLID_14_" class="st0" d="M96.5,57.4l-18.3-2.5l-8.9-15.7c-2.5-4.2-7-6.9-11.8-6.9H33.7c-5.8,0-10.9,3.6-12.8,8.9
		L16,54.6L3.9,57.2c-1.4,0.3-2.4,1.5-2.4,3v17.4c0,1.6,1.3,3,3,3h7.2c0.5,7,6.4,12.4,13.5,12.4s12.9-5.5,13.5-12.4h23.3
		c0.5,7,6.4,12.4,13.5,12.4s12.9-5.5,13.5-12.4H96c1.6,0,3-1.3,3-3V60.4C99.1,58.8,98,57.6,96.5,57.4z M25.1,86.6
		c-3.9,0-7.1-3.2-7.1-7.1s3.2-7.1,7.1-7.1s7.1,3.2,7.1,7.1S29.1,86.6,25.1,86.6z M25.8,54.5c-0.4,0-0.7-0.4-0.6-0.8l3.5-9.5
		c0.7-2.1,2.7-3.4,4.8-3.4h4.2c0.3,0,0.6,0.2,0.6,0.5l1.1,12.5c0,0.3-0.2,0.6-0.6,0.6H25.8z M48.2,54l-1.1-12.5
		c0-0.3,0.2-0.6,0.6-0.6h9.8c1.8,0,3.6,1,4.5,2.6l5.9,10.2c0.2,0.4-0.1,0.9-0.5,0.9H48.8C48.4,54.5,48.2,54.3,48.2,54z M75.5,86.6
		c-3.9,0-7.1-3.2-7.1-7.1s3.2-7.1,7.1-7.1c3.9,0,7.1,3.2,7.1,7.1S79.4,86.6,75.5,86.6z"/>
	<path id="XMLID_11_" class="st0" d="M30,25c4.6,0,8.4-2.9,10-7h3.4c0.1,0,0.3,0.1,0.4,0.1l2,1.7c0.2,0.2,0.4,0.2,0.6,0l2.9-2.6
		c0.2-0.2,0.4-0.2,0.6,0l2.9,2.6c0.2,0.2,0.4,0.2,0.6,0l2.9-2.6c0.2-0.2,0.4-0.2,0.6,0l2.9,2.6c0.2,0.2,0.4,0.2,0.6,0l2-1.7
		c0.1-0.1,0.2-0.1,0.4-0.1H65c0.2,0,0.4-0.1,0.5-0.2l2.5-3.1c0.2-0.2,0.2-0.5,0-0.8l-2.5-3.1c-0.1-0.1-0.3-0.2-0.5-0.2H39.9
		c-1.5-4-5.4-6.9-10-6.9c-5.9,0-10.7,4.7-10.7,10.7S24.1,25,30,25z M25.8,12c1.3,0,2.4,1.1,2.4,2.4c0,1.3-1.1,2.4-2.4,2.4
		c-1.3,0-2.4-1.1-2.4-2.4C23.5,13,24.5,12,25.8,12z"/>
</g>
</svg>
